<?xml version="1.0" standalone="no"?>
<!DOCTYPE svg PUBLIC "-//W3C//DTD SVG 20010904//EN"
 "http://www.w3.org/TR/2001/REC-SVG-20010904/DTD/svg10.dtd">
<svg version="1.0" xmlns="http://www.w3.org/2000/svg"
 width="260.000000pt" height="260.000000pt" viewBox="0 0 260.000000 260.000000"
 preserveAspectRatio="xMidYMid meet">
<metadata>
Created by potrace 1.11, written by Peter Selinger 2001-2013
</metadata>
<g transform="translate(0.000000,260.000000) scale(0.100000,-0.100000)"
fill="#000000" stroke="none">
<path d="M1232 2500 c-103 -47 -200 -148 -186 -194 8 -29 33 -46 66 -46 40 0
44 -21 12 -75 -37 -64 -90 -113 -136 -127 -47 -14 -58 -4 -58 53 0 35 -29 79
-51 79 -49 0 -188 -191 -212 -290 -4 -14 -14 -34 -24 -45 -10 -11 -34 -40 -54
-65 -54 -67 -128 -140 -142 -140 -19 0 -37 22 -37 45 0 11 -7 31 -16 43 -33
48 -113 16 -161 -66 -33 -56 -26 -85 27 -108 48 -21 51 -43 15 -96 -24 -35
-164 -140 -205 -153 -31 -10 -25 -29 33 -103 52 -69 105 -120 142 -139 29 -15
63 1 71 34 11 50 13 53 45 53 39 0 118 -42 143 -76 10 -14 20 -43 23 -64 l6
-39 -59 -28 c-93 -45 -91 -92 8 -167 26 -20 53 -36 62 -36 8 0 17 -6 20 -12 5
-10 7 -10 12 -1 3 7 15 27 27 46 25 37 40 68 126 252 34 72 61 134 61 138 0 4
25 62 55 128 30 66 55 126 55 133 0 7 9 21 20 31 11 10 20 22 20 27 0 5 15 41
34 81 19 40 37 83 41 96 4 14 29 70 55 125 26 56 53 119 60 141 31 99 161 375
173 368 16 -10 67 -124 115 -259 58 -161 114 -279 137 -288 9 -3 14 -2 11 3
-8 12 41 31 61 24 26 -9 33 -23 33 -63 0 -39 14 -60 41 -60 20 0 79 32 79 43
0 4 7 7 16 7 8 0 13 4 10 9 -3 5 2 15 11 22 14 12 16 12 8 0 -5 -9 -4 -12 3
-7 6 4 9 12 6 19 -2 7 6 22 18 33 l23 19 -20 -25 c-17 -20 -17 -22 -2 -11 21
17 46 58 28 47 -6 -4 0 9 14 30 42 62 36 77 -47 109 -59 22 -84 39 -130 88
-41 43 -58 68 -58 87 0 28 27 60 51 60 33 0 59 30 59 69 0 51 -34 99 -92 129
-46 23 -47 24 -77 6 -27 -16 -37 -32 -55 -87 -10 -31 -34 -29 -89 7 -72 48
-147 146 -147 193 0 18 -27 16 -78 -7z m268 -274 c0 -2 -8 -10 -17 -17 -16
-13 -17 -12 -4 4 13 16 21 21 21 13z m100 -76 c0 -5 -5 -10 -11 -10 -5 0 -7 5
-4 10 3 6 8 10 11 10 2 0 4 -4 4 -10z m-120 -14 c0 -3 -4 -8 -10 -11 -5 -3
-10 -1 -10 4 0 6 5 11 10 11 6 0 10 -2 10 -4z m-715 -156 c-3 -5 -12 -10 -18
-10 -7 0 -6 4 3 10 19 12 23 12 15 0z m65 -15 c0 -2 -13 -11 -30 -20 -38 -19
-40 -11 -2 9 31 17 32 18 32 11z m780 -8 c0 -2 -10 -12 -22 -23 l-23 -19 19
23 c18 21 26 27 26 19z m-1364 -332 c-3 -20 -16 -31 -16 -13 0 13 8 28 16 28
1 0 1 -7 0 -15z m39 -35 c-3 -5 -14 -10 -23 -9 -14 0 -13 2 3 9 27 11 27 11
20 0z m230 0 c-3 -5 -12 -10 -18 -10 -7 0 -6 4 3 10 19 12 23 12 15 0z m295 1
c0 -5 -7 -12 -16 -15 -14 -5 -15 -4 -4 9 14 17 20 19 20 6z m4 -52 c-3 -5 -10
-7 -15 -3 -5 3 -7 10 -3 15 3 5 10 7 15 3 5 -3 7 -10 3 -15z m16 -33 c0 -2 -8
-10 -17 -17 -16 -13 -17 -12 -4 4 13 16 21 21 21 13z m-125 -46 c-3 -5 -12
-10 -18 -10 -7 0 -6 4 3 10 19 12 23 12 15 0z m-310 -10 c-3 -5 -16 -15 -28
-21 -19 -9 -19 -8 3 10 28 23 34 26 25 11z m-55 -124 c0 -2 -8 -10 -17 -17
-16 -13 -17 -12 -4 4 13 16 21 21 21 13z"/>
<path d="M1930 1905 c0 -3 26 -18 58 -35 31 -16 81 -48 109 -70 29 -22 50 -35
47 -28 -10 25 -214 151 -214 133z"/>
<path d="M1620 1766 c0 -2 8 -10 18 -17 15 -13 16 -12 3 4 -13 16 -21 21 -21
13z"/>
<path d="M2158 1720 c4 -25 0 -31 -29 -44 -34 -15 -34 -15 -4 -9 17 3 33 8 38
10 10 6 9 73 -1 73 -5 0 -7 -13 -4 -30z"/>
<path d="M2064 1635 c-9 -14 -15 -27 -13 -30 3 -2 12 10 21 26 21 36 15 39 -8
4z"/>
<path d="M1616 1622 c8 -30 44 -112 49 -112 5 0 -6 29 -34 90 -12 25 -18 34
-15 22z"/>
<path d="M2051 1578 c-1 -20 90 -132 120 -149 27 -14 82 -4 101 19 19 21 31
55 18 47 -6 -3 -10 -13 -10 -20 0 -16 -50 -45 -77 -45 -10 0 -29 7 -41 16 -23
16 -94 107 -105 134 -4 12 -6 12 -6 -2z"/>
<path d="M2350 1533 c14 -9 51 -42 83 -72 44 -42 61 -66 69 -101 7 -25 14 -37
16 -27 5 26 -34 100 -71 133 -64 57 -99 84 -110 84 -6 0 0 -8 13 -17z"/>
<path d="M2296 1523 c-6 -14 -5 -15 5 -6 7 7 10 15 7 18 -3 3 -9 -2 -12 -12z"/>
<path d="M1275 1488 c-35 -87 -66 -160 -95 -227 -21 -48 -28 -77 -22 -83 14
-14 282 1 282 16 0 6 -9 25 -20 41 -11 17 -20 25 -20 18 0 -7 -6 -10 -14 -7
-8 3 -17 1 -21 -5 -3 -6 -2 -11 4 -11 6 0 8 -7 5 -15 -10 -24 -23 -18 -38 18
-11 27 -11 34 0 48 8 8 14 21 14 27 0 6 5 14 12 18 6 4 9 3 6 -2 -3 -5 0 -15
8 -21 11 -11 12 -7 9 19 -2 17 -9 36 -14 41 -6 6 -11 18 -11 26 0 20 -53 131
-63 131 -4 0 -14 -15 -22 -32z m47 -200 c-7 -7 -12 -8 -12 -2 0 6 3 14 7 17 3
4 9 5 12 2 2 -3 -1 -11 -7 -17z m-82 -43 c-7 -8 -9 -15 -4 -16 12 -1 -28 -17
-43 -18 -7 -1 -13 4 -13 10 0 5 5 7 10 4 6 -3 10 -1 10 5 0 6 4 9 9 6 5 -3 11
1 15 9 3 8 11 15 17 15 8 0 8 -4 -1 -15z m176 -24 c-4 -5 0 -11 6 -14 7 -2 9
-8 5 -13 -4 -5 -12 -2 -16 5 -6 8 -14 10 -22 5 -12 -6 -12 -5 0 9 14 18 37 24
27 8z"/>
<path d="M1686 1448 c13 -43 23 -68 28 -68 3 0 -2 20 -11 45 -15 45 -31 65
-17 23z"/>
<path d="M1730 1350 c6 -11 13 -20 16 -20 2 0 0 9 -6 20 -6 11 -13 20 -16 20
-2 0 0 -9 6 -20z"/>
<path d="M1761 1300 c14 -31 19 -36 19 -24 0 6 -7 19 -16 30 -14 18 -14 18 -3
-6z"/>
<path d="M2460 1280 c-8 -5 -10 -10 -5 -10 6 0 17 5 25 10 8 5 11 10 5 10 -5
0 -17 -5 -25 -10z"/>
<path d="M2390 1243 c-41 -27 -120 -110 -119 -124 0 -8 8 -3 17 11 21 30 35
44 92 93 46 39 50 48 10 20z"/>
<path d="M1800 1222 c0 -7 7 -26 15 -42 11 -22 20 -27 33 -22 16 6 16 7 -1 10
-10 2 -25 18 -32 35 -8 18 -14 26 -15 19z"/>
<path d="M2110 1210 c-9 -6 -10 -10 -3 -10 6 0 15 5 18 10 8 12 4 12 -15 0z"/>
<path d="M2235 1189 c-16 -10 -25 -19 -19 -19 7 0 22 9 35 20 30 24 23 24 -16
-1z"/>
<path d="M1898 1193 c-16 -2 -28 -8 -28 -12 0 -12 48 -7 62 7 6 6 8 11 3 11
-6 -1 -22 -4 -37 -6z"/>
<path d="M2190 1190 c-9 -6 -10 -10 -3 -10 6 0 15 5 18 10 8 12 4 12 -15 0z"/>
<path d="M1990 1181 c-8 -4 -25 -13 -37 -19 -12 -7 -30 -9 -39 -5 -14 5 -16 1
-12 -25 2 -17 1 -29 -4 -26 -16 10 -19 -25 -5 -53 26 -51 28 -79 3 -33 -42 75
-29 37 25 -75 47 -99 68 -130 56 -86 -3 13 1 21 15 24 16 4 17 3 7 -9 -9 -11
-9 -14 1 -14 9 0 7 -7 -5 -20 -37 -41 -7 -18 53 40 34 33 66 60 72 60 16 0 51
-40 45 -50 -4 -6 8 -8 30 -5 21 2 33 0 30 -5 -4 -6 -1 -10 6 -10 9 0 10 -3 3
-10 -7 -7 -19 -8 -37 -1 -40 15 -33 2 8 -15 51 -21 57 -19 117 39 51 48 99
117 81 117 -5 0 -15 -15 -23 -33 -8 -17 -24 -36 -35 -42 -30 -15 -65 -48 -65
-61 0 -13 -30 -28 -38 -19 -3 2 0 11 6 18 7 8 9 17 5 21 -4 4 13 25 37 47 25
22 36 38 26 35 -17 -6 -17 -5 -5 10 13 16 11 17 -13 12 -16 -3 -28 -1 -28 4 0
6 -7 7 -16 4 -8 -3 -13 -2 -9 3 3 5 24 13 48 17 38 7 40 8 17 15 -24 7 -24 7
5 8 17 0 44 -6 60 -14 l30 -15 -24 20 c-13 11 -36 20 -52 20 -16 0 -37 9 -49
22 -20 21 -32 19 -36 -6 -1 -9 5 -12 17 -9 14 4 19 0 19 -15 0 -16 -5 -20 -20
-17 -11 2 -36 -3 -56 -11 -20 -8 -33 -10 -29 -5 13 21 -14 11 -29 -11 -9 -12
-16 -17 -16 -9 0 37 63 82 81 58 3 -5 9 1 12 13 4 17 2 20 -14 15 -15 -5 -18
-3 -12 12 5 15 2 14 -19 -4 -27 -26 -47 -31 -28 -8 15 18 7 19 -22 4 -15 -8
-19 -8 -14 0 12 19 -2 12 -55 -26 -29 -20 -50 -31 -48 -23 3 8 35 35 72 60 36
24 65 46 63 48 -3 2 -17 -5 -32 -14 -20 -14 -29 -15 -32 -6 -6 18 -19 15 -68
-18 -24 -17 -44 -27 -44 -21 0 5 8 12 18 16 9 3 33 20 52 37 l35 31 -36 -20
c-20 -11 -48 -28 -63 -38 -24 -16 -26 -16 -20 -1 4 9 19 23 35 32 16 8 29 16
29 18 0 7 -40 -6 -46 -15 -3 -5 -10 -9 -17 -9 -16 0 1 14 48 39 26 14 33 21
20 20 -11 0 -27 -4 -35 -8z m25 -116 c-16 -13 -31 -22 -34 -20 -5 6 41 44 54
44 6 0 -3 -11 -20 -24z m94 -18 c-35 -28 -69 -46 -69 -38 0 10 47 40 64 41 5
0 7 -1 5 -3z m-172 -29 c2 -18 0 -20 -7 -8 -12 18 -13 30 -2 30 4 0 9 -10 9
-22z m143 -28 c-45 -39 -65 -38 -22 0 18 17 38 30 45 30 6 -1 -4 -14 -23 -30z
m10 -24 c0 -2 -8 -10 -17 -17 -16 -13 -17 -12 -4 4 13 16 21 21 21 13z m79
-11 c-10 -10 -22 -13 -35 -8 -16 6 -15 8 11 14 17 4 32 7 35 8 2 0 -3 -6 -11
-14z m89 3 c-2 -7 5 -12 15 -12 23 2 22 -1 -10 -22 -22 -14 -25 -14 -15 -2 19
23 -4 35 -27 14 -10 -9 -22 -16 -27 -16 -10 0 47 49 59 50 4 0 6 -6 5 -12z
m-78 -28 c0 -5 -5 -10 -11 -10 -5 0 -7 5 -4 10 3 6 8 10 11 10 2 0 4 -4 4 -10z"/>
<path d="M2091 1173 c-18 -19 -10 -25 12 -8 10 7 15 15 10 18 -4 3 -14 -2 -22
-10z"/>
<path d="M2125 1155 c-22 -13 -37 -25 -33 -25 9 0 78 41 78 46 0 6 -3 5 -45
-21z"/>
<path d="M2217 1159 c-9 -6 -15 -14 -12 -19 3 -5 0 -12 -6 -16 -8 -4 -9 -3 -5
4 4 7 5 12 2 12 -11 0 -77 -43 -72 -47 2 -3 17 4 33 14 25 16 27 16 14 0 -8
-10 -9 -17 -3 -17 6 0 14 5 17 11 4 6 13 8 21 5 8 -3 13 0 11 6 -1 6 9 15 23
19 18 5 20 7 6 8 -15 1 -16 4 -6 16 14 17 3 19 -23 4z"/>
<path d="M1852 1131 c-7 -4 -8 -12 -2 -21 6 -9 10 -10 10 -3 0 6 8 13 18 15
15 3 15 4 1 10 -9 3 -21 3 -27 -1z"/>
<path d="M2285 915 c-16 -13 -27 -26 -24 -29 3 -3 21 8 40 24 41 35 27 40 -16
5z"/>
<path d="M1004 837 c-6 -7 -18 -33 -27 -57 -8 -25 -34 -87 -55 -139 -35 -82
-38 -97 -27 -115 7 -12 15 -33 19 -47 5 -22 -1 -30 -38 -56 -64 -45 -69 -80
-21 -139 36 -44 80 -74 109 -74 31 0 65 24 77 54 6 17 11 34 10 39 0 4 12 7
27 7 21 0 43 -15 88 -62 34 -35 73 -83 87 -108 51 -89 43 -87 127 -38 109 62
138 87 161 135 24 51 18 65 -37 83 -36 12 -54 35 -54 69 0 27 94 128 126 134
28 5 64 -21 64 -46 0 -22 34 -47 63 -47 39 0 44 20 5 21 -23 1 -26 3 -10 6 12
2 22 9 22 14 0 6 5 7 11 3 20 -12 6 25 -101 251 -23 50 -49 98 -58 108 -14 15
-40 17 -286 17 -202 -1 -274 -4 -282 -13z m76 -27 c0 -13 -11 -13 -30 0 -12 8
-11 10 8 10 12 0 22 -4 22 -10z m108 -9 c3 -10 0 -12 -12 -8 -9 4 -28 0 -41
-9 -13 -9 -29 -13 -35 -9 -5 3 -10 1 -10 -4 0 -6 -3 -10 -7 -9 -13 2 -87 -33
-95 -45 -13 -21 0 -18 62 13 34 17 59 26 55 21 -7 -13 -3 -14 20 -5 13 6 14 9
3 16 -10 7 -8 8 7 7 25 -3 58 11 68 28 6 9 13 10 26 4 9 -5 23 -6 30 -1 7 4
32 8 55 8 32 0 36 -2 20 -8 -12 -5 -30 -7 -40 -6 -11 2 -24 -1 -30 -6 -7 -5
-22 -11 -34 -13 -44 -8 -60 -17 -54 -27 5 -7 1 -9 -9 -5 -11 4 -17 1 -17 -8 0
-8 -5 -15 -11 -15 -5 0 -7 4 -4 10 3 6 -1 7 -9 4 -9 -3 -13 -10 -11 -15 3 -4
-26 -25 -66 -44 -93 -47 -119 -57 -119 -45 0 6 5 10 12 10 16 0 169 72 164 77
-2 3 -23 -5 -47 -17 -23 -12 -59 -28 -80 -35 l-38 -14 21 45 c19 37 32 49 87
76 37 17 71 30 78 29 6 -1 15 3 18 9 9 15 37 9 43 -9z m302 10 c0 -5 -9 -13
-20 -16 -11 -4 -18 -10 -15 -15 6 -10 -63 -55 -72 -46 -4 3 -2 6 3 6 5 0 20 9
34 20 21 17 21 19 5 14 -14 -4 -12 0 8 13 15 11 24 23 20 26 -3 4 3 7 15 7 12
0 22 -4 22 -9z m-70 -11 c-19 -13 -30 -13 -30 0 0 6 10 10 23 10 18 0 19 -2 7
-10z m-386 -17 c-10 -7 -23 -13 -28 -12 -6 0 -5 3 2 6 6 2 10 8 8 12 -3 4 4 7
15 7 19 0 19 -1 3 -13z m518 -6 c-16 -19 -16 -19 8 -12 25 7 25 7 -3 -15 -15
-12 -31 -20 -34 -16 -4 3 -1 6 6 6 7 0 11 6 8 13 -2 7 -17 11 -38 9 l-34 -3
35 19 c19 11 43 19 52 19 16 -1 16 -2 0 -20z m-197 -19 c-9 -6 -19 -7 -22 -4
-4 3 -1 6 6 6 7 0 9 4 6 10 -4 6 1 7 11 3 15 -6 15 -7 -1 -15z m125 -13 c0 -2
-13 -11 -30 -20 -38 -19 -40 -11 -2 9 31 17 32 18 32 11z m-183 -20 c0 -18
-27 -29 -40 -16 -7 7 -2 14 14 20 13 5 24 10 25 10 0 1 1 -6 1 -14z m313 -17
c10 -21 10 -21 -3 -5 -16 19 -32 24 -21 5 4 -6 3 -8 -4 -4 -6 3 -38 -12 -71
-34 -56 -37 -111 -65 -111 -56 0 2 20 14 45 26 25 12 45 26 45 31 0 5 -13 3
-30 -6 -16 -9 -30 -13 -30 -11 0 12 60 35 74 30 9 -3 16 -1 16 5 0 11 47 40
67 41 7 0 17 -10 23 -22z m-270 7 c0 -2 -10 -9 -22 -15 -22 -11 -22 -10 -4 4
21 17 26 19 26 11z m-51 -29 c-10 -9 -89 -46 -89 -41 0 6 72 44 84 45 5 0 7
-2 5 -4z m41 -20 c0 -7 -103 -56 -108 -51 -3 2 19 16 49 30 58 27 59 27 59 21z
m296 -23 c-7 -7 -26 7 -26 19 0 6 6 6 15 -2 9 -7 13 -15 11 -17z m-549 3 c0
-8 -12 -19 -26 -25 -24 -11 -25 -10 -7 4 11 8 16 15 10 15 -6 0 13 18 22 20 0
0 1 -6 1 -14z m51 -11 c-3 -3 -9 2 -12 12 -6 14 -5 15 5 6 7 -7 10 -15 7 -18z
m402 5 c0 -5 -5 -10 -11 -10 -5 0 -7 5 -4 10 3 6 8 10 11 10 2 0 4 -4 4 -10z
m47 -16 c-3 -3 -12 -4 -19 -1 -8 3 -5 6 6 6 11 1 17 -2 13 -5z m-497 -8 c0 -2
-29 -21 -65 -41 -62 -34 -70 -43 -66 -72 3 -20 -17 -15 -23 5 -9 27 -7 37 7
37 6 1 23 8 37 17 22 14 101 56 108 58 1 0 2 -2 2 -4z m541 -17 c-18 -11 -35
-18 -38 -15 -5 5 46 35 62 36 6 0 -5 -9 -24 -21z m-654 4 c-9 -8 -47 -11 -47
-4 0 5 11 9 25 9 14 0 24 -2 22 -5z m43 -4 c-29 -19 -70 -39 -70 -34 0 7 63
45 75 45 6 0 3 -5 -5 -11z m380 6 c0 -2 -30 -21 -67 -41 -38 -20 -94 -52 -126
-70 -32 -19 -55 -30 -52 -24 3 5 30 23 60 40 56 32 70 46 35 35 -11 -3 -20 -4
-20 -2 0 9 91 59 97 54 3 -3 -9 -13 -27 -22 -18 -9 -29 -19 -27 -22 3 -3 30 8
59 25 53 30 68 36 68 27z m70 -9 c0 -2 -7 -7 -16 -10 -8 -3 -12 -2 -9 4 6 10
25 14 25 6z m220 -27 c0 -11 -4 -17 -10 -14 -5 3 -10 13 -10 21 0 8 5 14 10
14 6 0 10 -9 10 -21z m-620 7 c0 -1 -22 -17 -50 -34 -27 -17 -50 -28 -50 -23
0 4 21 20 48 34 50 28 52 29 52 23z m468 -9 c-14 -10 -15 -12 -2 -22 13 -9 12
-13 -8 -30 l-23 -20 18 21 c16 20 17 22 1 28 -10 4 -36 -6 -66 -24 -28 -17
-52 -29 -55 -26 -4 4 42 33 112 70 35 18 47 20 23 3z m-378 -7 c-35 -24 -54
-31 -30 -11 14 11 30 21 35 21 6 0 3 -5 -5 -10z m470 -10 c0 -5 -2 -10 -4 -10
-3 0 -8 5 -11 10 -3 6 -1 10 4 10 6 0 11 -4 11 -10z m-530 -23 c0 -2 -13 -13
-30 -25 -16 -13 -30 -18 -30 -13 0 6 12 17 28 25 29 17 32 18 32 13z m590 -41
c0 -3 -4 -8 -10 -11 -5 -3 -10 -1 -10 4 0 6 5 11 10 11 6 0 10 -2 10 -4z
m-726 -21 c-4 -8 -8 -15 -10 -15 -2 0 -4 7 -4 15 0 8 4 15 10 15 5 0 7 -7 4
-15z m31 -25 c-3 -5 -11 -10 -16 -10 -6 0 -7 5 -4 10 3 6 11 10 16 10 6 0 7
-4 4 -10z m10 -20 c-3 -5 -12 -10 -18 -10 -7 0 -6 4 3 10 19 12 23 12 15 0z
m-40 -20 c-3 -5 -12 -10 -18 -10 -7 0 -6 4 3 10 19 12 23 12 15 0z m-30 -40
c-3 -5 -12 -10 -18 -10 -7 0 -6 4 3 10 19 12 23 12 15 0z m-65 -9 c0 -6 -4
-13 -10 -16 -5 -3 -10 1 -10 9 0 9 5 16 10 16 6 0 10 -4 10 -9z m265 -11 c-3
-5 -12 -10 -18 -10 -7 0 -6 4 3 10 19 12 23 12 15 0z m400 -50 c3 -6 -1 -7 -9
-4 -18 7 -21 14 -7 14 6 0 13 -4 16 -10z m-535 -50 c0 -5 -10 -10 -22 -9 -22
0 -22 1 -3 9 11 5 21 9 23 9 1 1 2 -3 2 -9z"/>
<path d="M1030 710 c-30 -16 -50 -29 -45 -29 6 0 35 13 65 29 30 16 51 29 45
29 -5 0 -35 -13 -65 -29z"/>
</g>
</svg>
